/* XPM */
static char *result[] = {
/* columns rows colors chars-per-pixel */
"40 40 112 2 ",
"   c #010000",
".  c #0B0000",
"X  c #130000",
"o  c #1D0000",
"O  c #230000",
"+  c #2B0000",
"@  c #330000",
"#  c #3E0000",
"$  c #440000",
"%  c #480000",
"&  c #550000",
"*  c #5A0202",
"=  c #640000",
"-  c #6B0202",
";  c #730000",
":  c #7C0000",
">  c #820000",
",  c #8D0000",
"<  c #840C0C",
"1  c #940000",
"2  c #9F0000",
"3  c #9C1414",
"4  c #A70000",
"5  c #AC0000",
"6  c #AF0A0A",
"7  c #B20202",
"8  c #BC0000",
"9  c #A31515",
"0  c #B11717",
"q  c #B71919",
"w  c #BF1A1A",
"e  c #C30000",
"r  c #CA0000",
"t  c #D20000",
"y  c #DA0000",
"u  c #D10D1F",
"i  c #E20101",
"p  c #EC0000",
"a  c #E8070F",
"s  c #F30001",
"d  c #FF0000",
"f  c #F1040A",
"g  c #F40D0D",
"h  c #FF0B0B",
"j  c #F51717",
"k  c #FE1212",
"l  c #FF1C1C",
"z  c #CF0E20",
"x  c #D22525",
"c  c #DF2424",
"v  c #DE333F",
"b  c #FF2323",
"n  c #FE2B2B",
"m  c #E12A36",
"M  c #FF3434",
"N  c #FE3C3C",
"B  c #AF3E5D",
"V  c #CB364A",
"C  c #FF4343",
"Z  c #FF4E4E",
"A  c #FF5555",
"S  c #FF5D5D",
"D  c #FF6363",
"F  c #FF6D6D",
"G  c #FF7474",
"H  c #FF7B7B",
"J  c #2F4A9A",
"K  c #0149AA",
"L  c #084EAD",
"P  c #0B50AE",
"I  c #1557B1",
"U  c #195AB3",
"Y  c #214BA0",
"T  c #205FB5",
"R  c #2764B7",
"E  c #2B67B8",
"W  c #2F69BA",
"Q  c #326CBB",
"!  c #3D73BE",
"~  c #56498A",
"^  c #5A7FBF",
"/  c #477BC2",
"(  c #7C8ABD",
")  c #5886C6",
"_  c #5D8BC9",
"`  c #6F98CF",
"'  c #FF8C8C",
"]  c #FF9393",
"[  c #FF9C9C",
"{  c #FFA3A3",
"}  c #FFAEAE",
"|  c #FFB4B4",
" . c #FFBCBC",
".. c #93B2DB",
"X. c #A9C1E2",
"o. c #B8CCE7",
"O. c #BFD1EA",
"+. c #FFC3C3",
"@. c #FFCACA",
"#. c #FFD9D9",
"$. c #C1D2EA",
"%. c #C9D9ED",
"&. c #DBE5F3",
"*. c #FFE7E7",
"=. c #E7EEF7",
"-. c #EDF2F9",
";. c #FFF3F3",
":. c #F2F6FB",
">. c #FAF7F9",
",. c #F7F9FC",
"<. c #FFFEFF",
"1. c None",
/* pixels */
"1.1.1.1.1.1.1.1.1.1.1.1.1.1.1.1.              1.1.1.1.1.1.1.1.1.1.1.1.1.1.1.1.1.",
"1.1.1.1.1.1.1.1.1.1.1.1.1.X @ & < 9 q w 0 3 < % + . 1.1.1.1.1.1.1.1.1.1.1.1.1.1.",
"1.1.1.1.1.1.1.1.1.1.1.  $ , x N A S D F D A M d 8 > +   1.1.1.1.1.1.1.1.1.1.1.1.",
"1.1.1.1.1.1.1.1.1.1.O 6 M D D F D D S A D S M d d d s 1 o 1.1.1.1.1.1.1.1.1.1.1.",
"1.1.1.1.1.1.1.1.X - c A D A C n l k k h k k d d d d d d t % . 1.1.1.1.1.1.1.1.1.",
"1.1.1.1.1.1.1.  ; n D S N k d d d d d d d d d d d d d d d y &   1.1.1.1.1.1.1.1.",
"1.1.1.1.1.1.. > n D C h d d d d d d d d d d d d d d d d d d i & 1.1.1.1.1.1.1.1.",
"1.1.1.1.1.1.& j D n d d d d d d d d d d d d d d d d d d d d s r O 1.1.1.1.1.1.1.",
"1.1.1.1.1.@ g A b d d d d d d d d d d d d d d d d d d d d d d y 7 o 1.1.1.1.1.1.",
"1.1.1.1.o 5 N l d d d d d d d d d d d d d d d d d d d d d d d p t :   1.1.1.1.1.",
"1.1.1.1.* k N d d d d d d d d d d d d d d d d d d d d d d d d s y t o 1.1.1.1.1.",
"1.1.1.. 7 b d d d d d d d d d d d d d d d d d d d d d d d d d d y y = 1.1.1.1.1.",
"1.1.1.O i h d d d d d d d d d d d d d d d d d d d d d d d d d d i y 5 + 1.1.1.1.",
"1.1.1.$ s d d d d d d d d d d d d d d d d d d d d d d d d d d d s y t $ 1.1.1.1.",
"1.1.1.: d d d d d d d d k l d d d d d d d d d d h l h d d d d d s y y = 1.1.1.1.",
"1.1.  4 d d d d d d b ' @.@.| S h d d d d d k F  .@. .H l d d d d y y ; 1.1.1.1.",
"1.1.  e d d d d d n #.<.<.<.<.>.' d d d d l } <.<.<.<.<.+.d d d d y t , 1.1.1.1.",
"1.1.  t d d d d h #.<.<.<.<.<.<.<.A d d d ] <.<.<.<.<.<.<.{ h d d i y , 1.1.1.1.",
"1.1.  t d d d d A <.<.<.<.<.<.<.<.| l d N #.<.<.<.<.<.<.<.*.n d d y y , 1.1.1.1.",
"1.1.  t d d d d ] <.<.<.<.<.<.<.<.;.C d H >.<.<.<.<.<.<.<.<.D d d i y , 1.1.1.1.",
"1.1.  t d d d d +.<.<.<.<.<.<.<.<.<.D d { <.<.<.<.<.<.<.<.<.{ d d y y , 1.1.1.1.",
"1.1.  t d d d d @.<.<.,.%.$.=.<.<.<.F d } <.<.<.&.O.&.<.<.<.} d d i y , 1.1.1.1.",
"1.1.  t d d d d  .<.<.X.I K ) &.<.<.D d { <.<.&.Q K Q %.<.<.[ d d y y , 1.1.1.1.",
"1.1.  t d d d d ' <.,.I K K K ` <.;.N d G >.<./ K K K U <.<.A d d y y , 1.1.1.1.",
"1.1.  t d d d d N <.-.) R L K ! <.{ k d b @.,.L K P Q _ :.#.l d s y y , 1.1.1.1.",
"1.1.  t d d d d d | <.,...U K ^ >.M d d d G >.K K E o.,.<.G d d s y y , 1.1.1.1.",
"1.1.  t d d d d d k } ! K K K ( Z d d d d h G ) K K K ) ' d d d i y y , 1.1.1.1.",
"1.1.  t d d d d d d h B K K ~ m d d d d d d d v J K Y V h d d d y y y , 1.1.1.1.",
"1.1.  t d d d d d d d d a z d d d d d d d d d d f z f d d d d s t y y , 1.1.1.1.",
"1.1.  t d d d d d d d d d d d d d d d d d d d d d d d d d d d p y y y , 1.1.1.1.",
"1.1.  t d d d d d d d d d d d d d d d d d d d d d d d d d d d y y y y , 1.1.1.1.",
"1.1.  t d d d d d d d d d d d d d d d d d d d d d d d d d d s y y y y , 1.1.1.1.",
"1.1.  t d d d d d d d d d d d d d d d d d d d d d d d d d d y y y y y , 1.1.1.1.",
"1.1.  t d d d d d d d d d d d d d d d d d d d d d d d d d p y y y y y , 1.1.1.1.",
"1.1.  t d d d d d d d d d d d d d 4 > > , e d d d d d d d t y y y y t , 1.1.1.1.",
"1.1.  t d d d s > ; i d d d d s - o .   . + , d d d d d 8 & > t y y y , 1.1.1.1.",
"1.1.  t d d s &   1.@ p d d d 8 . 1.1.1.1.1.. p d d d t O 1.  ; y y y , 1.1.1.1.",
"1.1.  t d p %   1.1.1.@ p d d 1 1.1.1.1.1.1.  e d d 8 o 1.1.1.  ; t t , 1.1.1.1.",
"1.1.  7 r = . 1.1.1.1.. * t y : 1.1.1.1.1.1.  2 y 8 + 1.1.1.1.1.. ; 8 : 1.1.1.1.",
"1.1.1.+ +   1.1.1.1.1.1.  + @ O 1.1.1.1.1.1.1.+ @ O 1.1.1.1.1.1.1.. @ O 1.1.1.1."
};
