/* XPM */
static char *a3d9b58b82854b42c47b65807b2a73b8PoFhZ6bGzYPDKGMr[] = {
/* columns rows colors chars-per-pixel */
"40 40 151 2 ",
"   c None",
".  c #040300",
"X  c #090600",
"o  c #0D0B01",
"O  c #130E00",
"+  c #100E0A",
"@  c #161102",
"#  c #1A1300",
"$  c #1A1800",
"%  c #1D1909",
"&  c #1F1E12",
"*  c #201700",
"=  c #231A00",
"-  c #2B1F00",
";  c #232000",
":  c #2D2100",
">  c #342500",
",  c #342900",
"<  c #3E2C00",
"1  c #343000",
"2  c #3B3601",
"3  c #3D3800",
"4  c #292615",
"5  c #373414",
"6  c #3E3C26",
"7  c #412F00",
"8  c #453100",
"9  c #4B3500",
"0  c #453F00",
"q  c #4E3800",
"w  c #543C00",
"e  c #4F3E12",
"r  c #4E4400",
"t  c #554E00",
"y  c #5B5300",
"u  c #4D491B",
"i  c #5F4A18",
"p  c #604500",
"a  c #644800",
"s  c #6B4D00",
"d  c #635705",
"f  c #735300",
"g  c #7A5700",
"h  c #7F5B00",
"j  c #614D18",
"k  c #6B6200",
"l  c #7C6700",
"z  c #7F6111",
"x  c #7A611E",
"c  c #4A4729",
"v  c #535138",
"b  c #625D25",
"n  c #61573C",
"m  c #796023",
"M  c #656243",
"N  c #74704D",
"B  c #825D00",
"V  c #876100",
"C  c #8C6400",
"Z  c #946A00",
"A  c #9B6F00",
"S  c #867100",
"D  c #857A00",
"F  c #967000",
"G  c #9C7101",
"H  c #886812",
"J  c #906D14",
"K  c #8F701D",
"L  c #987613",
"P  c #A37500",
"I  c #A57C00",
"U  c #AC7C00",
"Y  c #B07E00",
"T  c #997820",
"R  c #917735",
"E  c #937935",
"W  c #958900",
"Q  c #B38201",
"!  c #BC8700",
"~  c #A59400",
"^  c #A89700",
"/  c #AD9E00",
"(  c #BB9500",
")  c #BD8C11",
"_  c #BEAD00",
"`  c #B4A300",
"'  c #8A8437",
"]  c #9D953D",
"[  c #A38226",
"{  c #B2913D",
"}  c #C38D00",
"|  c #C29000",
" . c #CD9400",
".. c #D19600",
"X. c #D79A00",
"o. c #DC9E00",
"O. c #D99F09",
"+. c #C8A900",
"@. c #C5B300",
"#. c #DFB500",
"$. c #E4A400",
"%. c #E9A700",
"&. c #E6A800",
"*. c #ECA900",
"=. c #F1AD00",
"-. c #EDB400",
";. c #EFBF00",
":. c #F1B200",
">. c #F1BA00",
",. c #EDAF10",
"<. c #EFB215",
"1. c #F2B415",
"2. c #C59C26",
"3. c #D4C200",
"4. c #E6CD00",
"5. c #F1C500",
"6. c #F1CC00",
"7. c #F1D300",
"8. c #F1DD00",
"9. c #F2C515",
"0. c #E6D414",
"q. c #F2DA15",
"w. c #968454",
"e. c #BB9B48",
"r. c #878466",
"t. c #A4A074",
"y. c #E0B94E",
"u. c #E8BF54",
"i. c #E6BE5A",
"p. c #E1BA56",
"a. c #CBC14E",
"s. c #D0C652",
"d. c #EBC359",
"f. c #F6C752",
"g. c #F4CA5F",
"h. c #F6D652",
"j. c #F5E750",
"k. c #F6E852",
"l. c #F7CD64",
"z. c #F7D366",
"x. c #F7DC64",
"c. c #F7E464",
"v. c #F7EA65",
"b. c #CFC08F",
"n. c #CDC894",
"m. c #EAE3AF",
"M. c #FCEFCC",
"N. c #F9F5C5",
"B. c #FCF4CC",
"V. c #FCF8CC",
"C. c #F7F3C2",
/* pixels */
"                                  X c 6                                         ",
"                        . 4 M r.n.C.V.C.v                                       ",
"                    & t.m.B.B.B.M.M.B.V.V.M                                     ",
"                  4 b.M.B.M.M.M.M.M.M.B.V.V.N                                   ",
"                $ 2.f.f.f.f.f.f.f.f.f.f.h.k.k.y                                 ",
"              @ A *.=.=.$.} I ! $.:.=.=.:.6.8./                                 ",
"            @ L 1.1.<.Q q @ O < G 1.1.1.1.1.q.q.+                               ",
"          O E l.l.u.m @     X > H l.l.l.l.g.x.k.u                               ",
"        % R g.l.p.i X       O q E l.l.z.l.l.z.v.' +                             ",
"      % e.l.l.i.i .       . > w u.l.l.l.z.l.z.c.s.5                             ",
"    + e.l.l.l.m X         = w L l.z.l.l.z.l.l.x.v.b                             ",
"    n l.l.l.{ #         @ 9 T d.z.l.l.l.z.l.l.z.v.]                             ",
"  . w.l.l.d.e         # 9 H u.l.l.l.l.l.l.l.g.l.c.a.%                           ",
"  X J 1.1.) #     X = q s O.1.1.1.1.1.1.1.1.1.1.9.0.3                           ",
"  # G =.=.P O X @ > w B X.=.=.=.=.=.=.=.=.=.=.=.:.7.k                           ",
"  - U =.=.P 7 > 9 w V O.=.=.=.=.=.=.=.=.=.=.=.=.=.5.W                           ",
"  7 } =.=.$.C g Z  .=.=.=.=.=.=.=.=.=.=.=.=.=.=.=.:.@.$                         ",
". q $.=.=.=.=.=.=.=.=.=.=.=.=.=.=.=.=.=.=.=.=.=.=.=.4.2                         ",
"O w B =.=.=.=.=.=.=.=.=.=.=.=.=.=.=.=.=.=.=.=.=.=.=.5.g                         ",
"O q w C *.=.=.=.=.=.=.=.=.=.=.=.=.=.=.=.=.=.=.=.=.=.:./                         ",
"  # w w Z $.=.=.=.=.=.=.=.=.=.=.=.=.=.=.=.=.=.=.=.=.=.S                         ",
"    # w w B %.=.=.=.=.=.=.=.=.=.=.=.=.=.=.=.=.=.=.=.I @                         ",
"      # w w s P X.=.=.=.=.=.=.=.=.=.=.=.=.=.=.=.=.>.3.1                         ",
"        * < w w w f P o.=.=.=.=.=.=.=.=.=.=.=.=.=.:.7.3.1                       ",
"            . # - 8 w w g Y $.=.=.=.=.=.=.=.=.=.=.=.:.7.3.1                     ",
"                . O * > 8 w g A  .%.=.=.=.*.! $.=.=.=.>.7./ ;   =               ",
"                        X @ = > 9 f P ..%.Z w h $.=.=.=.>.7./ l _ 3             ",
"                                X O = 7 q O O q h  .=.=.=.>.5.:.5.` @           ",
"                                              O q s ..=.=.=.=.=.-.d 0 t         ",
"                                                O < s  .=.=.=.=.6.+.#.4.y       ",
"                                                  o 7 P =.=.=.=.:.:.=.>.D o     ",
"                                                    f %.=.*.=.=.=.=.=.5.r ~ y   ",
"                                                  - } =.$.Z X.=.=.=.:.6.-.>.4.2 ",
"                                                    9 ! w g $.=.=.=.=.:.=.=.( $ ",
"                                                      # q o.=.%.o.=.=.=.=.| =   ",
"                                                        p %.=.U C *.=.=.&.,     ",
"                                                          a V : } =.=.o.,       ",
"                                                            O U =.=.Q -         ",
"                                                              s %.Q #           ",
"                                                                8 #             "
};
