/* XPM */
static char *result[] = {
/* columns rows colors chars-per-pixel */
"40 40 100 2 ",
"   c #010000",
".  c #090600",
"X  c #0E0A00",
"o  c #140700",
"O  c #120C00",
"+  c #1F0D00",
"@  c #171100",
"#  c #1C1301",
"$  c #230C00",
"%  c #2A0F00",
"&  c #211601",
"*  c #221901",
"=  c #2A1E01",
"-  c #3E1F00",
";  c #342501",
":  c #3A2601",
">  c #3C2901",
",  c #471A00",
"<  c #481900",
"1  c #442E01",
"2  c #453101",
"3  c #4B3502",
"4  c #543902",
"5  c #5A3B02",
"6  c #622300",
"7  c #6B2600",
"8  c #623101",
"9  c #7E3701",
"0  c #5E4302",
"q  c #614502",
"w  c #654802",
"e  c #704502",
"r  c #7E5203",
"t  c #943500",
"y  c #983700",
"u  c #8B4701",
"i  c #855702",
"p  c #855D02",
"a  c #8C5C03",
"s  c #9F5001",
"d  c #A24301",
"f  c #AA4C01",
"g  c #AA5E02",
"h  c #B15601",
"j  c #B45901",
"k  c #8D6403",
"l  c #916603",
"z  c #9A6503",
"x  c #956903",
"c  c #9F6803",
"v  c #A76D03",
"b  c #BC6A02",
"n  c #AE7103",
"m  c #AA7904",
"M  c #B67703",
"N  c #B27E04",
"B  c #BE7C03",
"V  c #C46C02",
"C  c #CA7503",
"Z  c #C37F04",
"A  c #CA7B03",
"S  c #D27E03",
"D  c #BC8604",
"F  c #C78104",
"G  c #CB8404",
"H  c #C38A04",
"J  c #C98F04",
"K  c #D38B04",
"L  c #DB8E04",
"P  c #CA9004",
"I  c #D49604",
"U  c #DF9104",
"Y  c #D79804",
"T  c #DC9C04",
"R  c #E29404",
"E  c #E39D04",
"W  c #EA9C04",
"Q  c #E3A105",
"!  c #EBA305",
"~  c #EEA905",
"^  c #F2A505",
"/  c #F5AB05",
"(  c #F9AE05",
")  c #FFB505",
"_  c #FFB60A",
"`  c #FFB80F",
"'  c #FFBA14",
"]  c #FFBC1C",
"[  c #FFBF24",
"{  c #FFC12C",
"}  c #FFC334",
"|  c #FFC438",
" . c #FFC742",
".. c #FFC844",
"X. c #FFCA4A",
"o. c #FFCF5A",
"O. c #FFD05E",
"+. c #FFD162",
"@. c #FFD369",
"#. c None",
/* pixels */
"#.#.#.#.#.#.#.#.#.#.#.#.#.#.#.#.#.            #.#.#.#.#.#.#.#.#.#.#.#.#.#.#.#.#.",
"#.#.#.#.#.#.#.#.#.#.#.#.#.. * 3 x P ( ) ) ( H x 3 *   #.#.#.#.#.#.#.#.#.#.#.#.#.",
"#.#.#.#.#.#.#.#.#.#.#.@ q m Q ) _ ' { { ` ) ) ) ) Q D 0 * #.#.#.#.#.#.#.#.#.#.#.",
"#.#.#.#.#.#.#.#.#.  3 I ) ) _ } o.O.@.@.} ) ) ) ) ) ) ( Y 2   #.#.#.#.#.#.#.#.#.",
"#.#.#.#.#.#.#.#.. k ) ) ' ..+.@.@.@.@.@.@.{ ) ) ) ) Q D ~ ) k . #.#.#.#.#.#.#.#.",
"#.#.#.#.#.#.#.2 T ) ` ..+.@.O...{ { ] ' ` ) ) ) ) ( @     2 P Q > #.#.#.#.#.#.#.",
"#.#.#.#.#.#.2 ! ) ' O.O.X.] ) ) ) ) ) ) ) ) ) ) ) ( > .     . m T > #.#.#.#.#.#.",
"#.#.#.#.#.3 ! ) [ X.} ' ) ) ) ) ) ) ) ) ) ) ) ) ) ) ~ w .     X x Q 3 #.#.#.#.#.",
"#.#.#.#.O E ) [ X.' ) ) ) ) ) ) ) ) ) ) ) ) ) ) ) ) ) / 0 . # k > H Q O #.#.#.#.",
"#.#.#.  i ) ` [ _ ) ) ) ) ) ) ) ) ) ) ) ) ) ) ) ) ) ) ) ) H ) Q = = / k   #.#.#.",
"#.#.#.3 W ) ' ) ) ) ) ) ) ) ) ) ) ) ) ) ) ) ) ) ) ) ) ) ) ) ) Y #   l ) 4 #.#.#.",
"#.#.# B ! ) ) ) ) ) ) ) ) ) ) ) ) ) ) ) ) ) ) ) ) ) ) ) ) ) ) P X   2 ) I # #.#.",
"#.#.4 L ^ ) ) ) ) ) ) ) ) ) ) ) ) ) ) ) ) ) ) ) ) ) ) ) ) ) ) Y @   @ ) ) 0 #.#.",
"#.  z R ^ ) ) ) ) ) ) ) ) ) ) ) ) ) ) ) ) ) ) ) ) ) ) ) ) ) ) ) w   X ) ) m   #.",
"#.& Z L ( ) ) ) ) ) ) ) ) ) ) ) ) ) ) ) ) ) ) ) ) ) ) ) ) ) ) ) I ; p ) ) Y # #.",
"#.> L R / ) ) ) ) ) ) ) ) ) ) ) ) ) ) ) ) ) ) ) ) ) ) ) ) ) ) ) ) ) ) ) ) ) 2 #.",
"#.r U U / ) ) ) ) ) ) ) ) ) ) ) ) ) ) ) ) ) ) ) ) ) ) ) ) ) ) ) ) ! I D l 5 @ #.",
"  v U U ^ ) ) ) ) ) ) ) ) ) ) ) ) ) ) ) ) ) ) ) ) ) ~ T P N p w 3 : * . #.#.#.#.",
"  F U U ! ) ) ) ) ) ) ) ) ) ) ) ) ) ) ) ) ) ^ D p 3 ; # X   #.#.#.#.#.#.#.#.#.#.",
"  K U U W ) ) ) ) ) ) ) ) ) ) ) Q K A M s 9 , $     #.#.#.#.#.#.#.#.#.#.#.#.#.#.",
"  K U U R ) ) ) ) ) ) ) ) ) ) ) ^ R S V h d y t t 7 < $     #.#.#.#.#.#.#.#.#.#.",
"  F U U U ( ) ) ) ) ) ) ) ) ) ) ) ) ) ) ) ) ( R C j f d y 6 % o   #.#.#.#.#.#.#.",
"  n U U U ~ ) ) ) ) ) ) ) ) ) ) ) ) ) ) ) ) ) ) ) ) ( ^ W L C g u 8 - $ . #.#.#.",
"#.r U U U E ) ) ) ) ) ) ) ) ) ) ) ) ) ) ) ) ) ) ) ) ) ) ) ) ) ) ) / ! I n e @ #.",
"#.> L U U U ^ ) ) ) ) ) ) ) ) ) ) ) ) ) ) ) ) ) ) ) ) ) ) ) ) ) ) ) ) ) ) ) 2 #.",
"#.# Z U U U R ( ) ) ) ) ) ) ) ) ) ) ) ) ) ) ) ) ) ) ) ) ) ) ) ) ) ) ) ) ) T # #.",
"#.  z U R L U ! ) ) ) ) ) ) ) ) ) ) ) ) ) ) ) ) ) ) ) ) ) ) ) ) ) ) ) ) ) m   #.",
"#.#.5 L U R L R ^ ) ) ) ) ) ) ) ) ) ) ) ) ) ) ) ) ) ) ) ) ) ) ) ) ) ) ) ( 0 #.#.",
"#.#.& B U U U R U ( ) ) ) ) ) ) ) ) ) ) ) ) ) ) ) ) ) ) ) ) ) ) ) ) ) ) Y # #.#.",
"#.#.#.3 L U U U U R ) ) ) ) ) ) ) ) ) ) ) ) ) ) ) ) ) ) ) ) ) ) ) ) ) ) 4 #.#.#.",
"#.#.#.  i U U U U U R ) ) ) ) ) ) ) ) ) ) ) ) ) ) ) ) ) ) ) ) ) ) ) ) k   #.#.#.",
"#.#.#.#.O F U U U U U U ( ) ) ) ) ) ) ) ) ) ) ) ) ) ) ) ) ) ) ) ) ) Q O #.#.#.#.",
"#.#.#.#.#.1 G R L R U U R W ) ) ) ) ) ) ) ) ) ) ) ) ) ) ) ) ) ) ) ~ 3 #.#.#.#.#.",
"#.#.#.#.#.#.: F R L R L L U R / ) ) ) ) ) ) ) ) ) ) ) ) ) ) ) ) ! > #.#.#.#.#.#.",
"#.#.#.#.#.#.#.> Z L R R U U R L W ^ ) ) ) ) ) ) ) ) ) ) ) ) ) Q 3 #.#.#.#.#.#.#.",
"#.#.#.#.#.#.#.#.O i L L U U L R L R L R W ^ / ( ( ) ( ( ^ ! a O #.#.#.#.#.#.#.#.",
"#.#.#.#.#.#.#.#.#.  1 B L U R U R L R L U U U U U U R L M 1   #.#.#.#.#.#.#.#.#.",
"#.#.#.#.#.#.#.#.#.#.#.& 8 c F U L R L R U U U U U F z 5 # #.#.#.#.#.#.#.#.#.#.#.",
"#.#.#.#.#.#.#.#.#.#.#.#.#.. # 2 a M K U U L M a 1 &   #.#.#.#.#.#.#.#.#.#.#.#.#.",
"#.#.#.#.#.#.#.#.#.#.#.#.#.#.#.#.#.            #.#.#.#.#.#.#.#.#.#.#.#.#.#.#.#.#."
};
