/* XPM */
static char *result[] = {
/* columns rows colors chars-per-pixel */
"40 40 141 2 ",
"   c #020200",
".  c #090700",
"X  c #0C0B01",
"o  c #120F01",
"O  c #141404",
"+  c #1D1601",
"@  c #161B00",
"#  c #1B1800",
"$  c #1F1D0B",
"%  c #241B01",
"&  c #221F0B",
"*  c #2C2200",
"=  c #2D2E07",
"-  c #24210C",
";  c #28250E",
":  c #352700",
">  c #362901",
",  c #3D2E00",
"<  c #2A3002",
"1  c #2B2810",
"2  c #302E14",
"3  c #433300",
"4  c #4A3801",
"5  c #513D01",
"6  c #3D4A05",
"7  c #564100",
"8  c #5F4801",
"9  c #5B4402",
"0  c #465103",
"q  c #43401A",
"w  c #4B471C",
"e  c #624903",
"r  c #6A4F01",
"t  c #6E5305",
"y  c #755903",
"u  c #7E5F03",
"i  c #556300",
"p  c #7F6004",
"a  c #6B7600",
"s  c #545022",
"d  c #595423",
"f  c #625D25",
"g  c #666229",
"h  c #7B753B",
"j  c #866505",
"k  c #8C6907",
"l  c #946E05",
"z  c #966E08",
"x  c #9D7407",
"c  c #9D770B",
"v  c #A57A08",
"b  c #AA7E09",
"n  c #BA7602",
"m  c #BC7B05",
"M  c #B67E08",
"N  c #C27D01",
"B  c #6F8407",
"V  c #738803",
"C  c #828C00",
"Z  c #819804",
"A  c #8E9800",
"S  c #969B00",
"D  c #AE8D07",
"F  c #AD820C",
"G  c #B5860B",
"H  c #BD840A",
"J  c #BC8B0B",
"K  c #AFBF00",
"L  c #CA8300",
"P  c #CF8800",
"I  c #D28A00",
"U  c #C0900F",
"Y  c #DC9400",
"T  c #C08C10",
"R  c #E49B00",
"E  c #E89F00",
"W  c #DAA80B",
"Q  c #D7AE15",
"!  c #EBA300",
"~  c #F6AD00",
"^  c #F7B205",
"/  c #F8B407",
"(  c #F7B408",
")  c #F9B709",
"_  c #F9B90C",
"`  c #FABD13",
"'  c #B8C900",
"]  c #B8DC02",
"[  c #C2DB00",
"{  c #E1CA06",
"}  c #FDC903",
"|  c #FECB0C",
" . c #FCC414",
".. c #FECA13",
"X. c #FCC618",
"o. c #FECB19",
"O. c #FDD014",
"+. c #D0DE2D",
"@. c #D9C237",
"#. c #FECF28",
"$. c #FDCD24",
"%. c #FED621",
"&. c #FED927",
"*. c #FEDB2D",
"=. c #FEDE34",
"-. c #FDDF38",
";. c #9C9744",
":. c #9E9944",
">. c #A79F43",
",. c #AEA747",
"<. c #AEA94D",
"1. c #B8B04C",
"2. c #B5AF51",
"3. c #A4A174",
"4. c #CBC65C",
"5. c #CECA5E",
"6. c #FEE545",
"7. c #FEE648",
"8. c #FEEF5C",
"9. c #FFF05F",
"0. c #E1DC67",
"q. c #E3DE69",
"w. c #F7DE65",
"e. c #EFDE74",
"r. c #E6E36E",
"t. c #EFE96E",
"y. c #FFF263",
"u. c #FFF46B",
"i. c #FEE27A",
"p. c #F1ED73",
"a. c #FEF772",
"s. c #FFF973",
"d. c #FFFB7B",
"f. c #FEE683",
"g. c #CDCBA9",
"h. c #EAEBAD",
"j. c #FEEBA7",
"k. c #F2EFD3",
"l. c #FFFED0",
"z. c white",
"x. c None",
/* pixels */
"x.x.x.x.x.x.x.x.x.x.x.x.x.x.x.x.x.x.x.x.x.x.x.x.x.x.x.x.x.x.x.x.x.x.x.x.x.x.x.x.",
"x.x.x.x.x.x.x.x.x.x.x.x.x.x.x.x.x.x.x.x.x.x.x.x.x.x.x.x.x.x.x.x.x.x.x.x.x.x.x.x.",
"x.x.x.x.x.x.x.x.x.x.x.x.x.x.x.x.x.x.x.x.x.x.x.x.x.x.x.x.x.x.x.x.x.x.x.x.x.x.x.x.",
"x.x.x.x.x.x.x.x.x.x.x.x.x.x.x.x.x.x.x.x.x.x.x.x.x.x.x.x.x.x.x.x.x.x.x.x.x.x.x.x.",
"x.x.x.x.x.x.x.x.x.x.x.x.x.x.x.x.x.x.x.x.x.x.x.x.x.x.x.x.x.x.x.x.x.x.x.x.x.x.x.x.",
"x.x.x.x.x.x.x.x.x.x.x.x.x.x.x.x.x.x.x.x.x.x.x.x.x.x.x.x.x.x.x.x.x.x.x.x.x.x.x.x.",
"x.x.x.x.x.x.x.x.x.x.x.x.x.x.x.x.x.x.x.x.x.x.x.x.x.x.x.x.x.x.x.x.x.x.x.x.x.x.x.x.",
"x.x.x.x.x.x.x.x.x.x.x.x.x.x.x.x.x.x.x.x.x.x.x.x.x.x.x.x.x.x.x.x.x.x.x.x.6 V X x.",
"x.x.x.x.x.x.x.x.x.x.x.x.x.x.x.x.x.x.x.x.x.x.x.x.x.x.x.x.x.x.x.x.x.x.x.x.B [ a   ",
"x.x.x.x.x.x.x.x.x.x.x.x.x.x.x.x.x.x.x.x.x.x.x.x.x.x.x.x.x.x.x.x.x.x.x.x.Z [ C X ",
"x.x.x.x.x.x.x.x.x.x.x.x.x.x.x.x.x.x.x.x.x.x.x.x.x.x.x.x.x.x.x.x.x.= < 0 ] K C @ ",
"x.x.x.x.x.x.x.x.x.x.x.x.x.x.x.x.x.x.x.x.x.x.x.x.x.x.x.x.x.x.x.; 3.h.+.[ ' A a @ ",
"x.x.x.x.x.x.x.x.x.x.x.x.x.x.x.x.x.x.x.x.x.x.x.x.x.x.x.x.x.x.; 4.l.z.w.{ S i O x.",
"x.x.x.x.x.x.x.x.x.x.x.x.x.x.x.x.x.x.x.x.x.x.x.x.x.x.x.x.x.1 4.8.f.j.` ( D # x.x.",
"x.x.x.x.x.x.x.x.x.x.x.x.x.x.x.x.x.x.x.x.x.x.x.x.x.x.x.x.X <.y...$.` ^ ! H + x.x.",
"x.2 f X & -   x.x.x.x.x.x.x.x.x.x.x.x.x.x.x.x.x.x.x.x.X ;.u.O.o./ ~ ~ Y G + x.x.",
"% Q -.@.e.k.g.h   x.x.x.x.x.x.x.x.x.x.x.x.x.x.x.x.x.. <.a.%...( ~ ~ ~ I F o x.x.",
". e W  .#.i.f.u.0.g O x.x.x.x.x.x.x.x.x.x.x.x.x.x.$ 2.s.&...( ~ ~ ~ ! N c x.x.x.",
"x.X H E ^  .} } =.u.5.d X x.x.x.x.x.x.x.x.x.x.  w q.s.%.| _ ~ ~ ~ ~ R H y x.x.x.",
"x.x.e N ~ ~ _ ..} } *.u.p.:.q O   x.x.x.  - s 5.d.8.O.|  .^ ~ ~ ~ ~ L T : x.x.x.",
"x.x.% M I ^ ~ ^  .| } } &.9.d.r.4.,.,.1.4.t.d.s.-.} |  .^ ~ ~ ~ ~ ! m J X x.x.x.",
"x.x.x.t m Y ~ ~ ~ (  .| } } } &.7.y.u.u.y.6.%.} } o. .~ ~ ~ ~ ~ ! N T e x.x.x.x.",
"x.x.x.X b m ! ~ ~ ~ ~ (  .| } } } } } } } } } ..o._ ~ ~ ~ ~ ~ ~ I H F + x.x.x.x.",
"x.x.x.x.: G m ! ~ ~ ~ ~ ~ ^ ` ..| | |  ...X.` ^ ~ ~ ~ ~ ~ ~ ~ Y m U 5 x.x.x.x.x.",
"x.x.x.x.x.4 U m R ~ ~ ~ ~ ~ ~ ~ ~ ^ ^ ^ ~ ~ ~ ~ ~ ~ ~ ~ ~ ~ I m U j   x.x.x.x.x.",
"x.x.x.x.x.x.e J n I ! ~ ~ ~ ~ ~ ~ ~ ~ ~ ~ ~ ~ ~ ~ ~ ~ ~ R N m U y X x.x.x.x.x.x.",
"x.x.x.x.x.x.. 5 J H N I ! ~ ~ ~ ~ ~ ~ ~ ~ ~ ~ ~ ~ ! R L m H J r X x.x.x.x.x.x.x.",
"x.x.x.x.x.x.x.x.* l H m n N I R R ! ! R R R Y I N n m H J j % x.x.x.x.x.x.x.x.x.",
"x.x.x.x.x.x.x.x.x.o 5 x J H H m n n n n n m m H H J G u , X x.x.x.x.x.x.x.x.x.x.",
"x.x.x.x.x.x.x.x.x.x.x.o : e u l v v v x z k j y 9 3 % . x.x.x.x.x.x.x.x.x.x.x.x.",
"x.x.x.x.x.x.x.x.x.x.x.x.x.x.x.    X o         x.x.x.x.x.x.x.x.x.x.x.x.x.x.x.x.x.",
"x.x.x.x.x.x.x.x.x.x.x.x.x.x.x.x.x.x.x.x.x.x.x.x.x.x.x.x.x.x.x.x.x.x.x.x.x.x.x.x.",
"x.x.x.x.x.x.x.x.x.x.x.x.x.x.x.x.x.x.x.x.x.x.x.x.x.x.x.x.x.x.x.x.x.x.x.x.x.x.x.x.",
"x.x.x.x.x.x.x.x.x.x.x.x.x.x.x.x.x.x.x.x.x.x.x.x.x.x.x.x.x.x.x.x.x.x.x.x.x.x.x.x.",
"x.x.x.x.x.x.x.x.x.x.x.x.x.x.x.x.x.x.x.x.x.x.x.x.x.x.x.x.x.x.x.x.x.x.x.x.x.x.x.x.",
"x.x.x.x.x.x.x.x.x.x.x.x.x.x.x.x.x.x.x.x.x.x.x.x.x.x.x.x.x.x.x.x.x.x.x.x.x.x.x.x.",
"x.x.x.x.x.x.x.x.x.x.x.x.x.x.x.x.x.x.x.x.x.x.x.x.x.x.x.x.x.x.x.x.x.x.x.x.x.x.x.x.",
"x.x.x.x.x.x.x.x.x.x.x.x.x.x.x.x.x.x.x.x.x.x.x.x.x.x.x.x.x.x.x.x.x.x.x.x.x.x.x.x.",
"x.x.x.x.x.x.x.x.x.x.x.x.x.x.x.x.x.x.x.x.x.x.x.x.x.x.x.x.x.x.x.x.x.x.x.x.x.x.x.x.",
"x.x.x.x.x.x.x.x.x.x.x.x.x.x.x.x.x.x.x.x.x.x.x.x.x.x.x.x.x.x.x.x.x.x.x.x.x.x.x.x."
};
