/* XPM */
static char *result[] = {
/* columns rows colors chars-per-pixel */
"40 40 10 1 ",
"  c #000066",
". c #0016D3",
"X c #0029FF",
"o c #002DFF",
"O c #002FFF",
"+ c #0036F2",
"@ c #0030FF",
"# c #003EFF",
"$ c #0040FF",
"% c None",
/* pixels */
"%%X##################################X%%",
"%@O%%%%%%%%%%%%%%%%%%%%%%%%%%%%%%%%%%O@%",
"XO%%oooooooooooooooooooooooooooooooo%%OX",
"#%%+................................+%%$",
"#%o.                                .o%$",
"#%o.                                .o%$",
"#%o.                                .o%$",
"#%o.                                .o%$",
"#%o.                                .o%$",
"#%o.                                .o%$",
"#%o.                                .o%$",
"#%o.                                .o%$",
"#%o.                                .o%$",
"#%o.                                .o%$",
"#%o.                                .o%$",
"#%o.                                .o%$",
"#%o.                                .o%$",
"#%o.                                .o%$",
"#%o.                                .o%$",
"#%o.                                .o%$",
"#%o.                                .o%$",
"#%o.                                .o%$",
"#%o.                                .o%$",
"#%o.                                .o%$",
"#%o.                                .o%$",
"#%o.                                .o%$",
"#%o.                                .o%$",
"#%o.                                .o%$",
"#%o.                                .o%$",
"#%o.                                .o%$",
"#%o.                                .o%$",
"#%o.                                .o%$",
"#%o.                                .o%$",
"#%o.                                .o%$",
"#%o.                                .o%$",
"#%o.                                .o%$",
"#%%+................................+%%$",
"XO%%oooooooooooooooooooooooooooooooo%%OX",
"%@O%%%%%%%%%%%%%%%%%%%%%%%%%%%%%%%%%%O@%",
"%%X$$$$$$$$$$$$$$$$$$$$$$$$$$$$$$$$$$X%%"
};
